<svg xmlns="http://www.w3.org/2000/svg" viewBox="0 0 64 64" role="img" aria-label="AS monogram">
  <rect width="64" height="64" rx="18" fill="#262129"/>
  <path d="M18 46 28.5 18h6.8L46 46h-6.4l-2.2-6.3H26.5L24.2 46Zm10.1-12.2h7.7L32 23.1Z" fill="#f2efe9"/>
  <path d="M45.9 20.2c-2.1-1.9-5-3-8.4-3-5.8 0-9.8 2.9-9.8 7.4 0 4.1 2.7 6 8.7 7.2 3.8.8 5 1.5 5 3.2 0 1.9-1.8 3.1-4.7 3.1-2.9 0-5.5-1-8-3l-3.5 4.2c3 2.7 6.9 4.2 11.3 4.2 6.6 0 10.9-3.2 10.9-8.1 0-4.6-3-6.4-8.4-7.6-4-.9-5.3-1.4-5.3-3 0-1.7 1.5-2.8 4.1-2.8 2.6 0 4.8.9 7 2.5Z" fill="#7cb0d8"/>
</svg>
